<?xml version="1.0" encoding="utf-8"?>
<!-- Generator: Adobe Illustrator 23.0.2, SVG Export Plug-In . SVG Version: 6.00 Build 0)  -->
<svg version="1.1" id="Слой_1" xmlns="http://www.w3.org/2000/svg" xmlns:xlink="http://www.w3.org/1999/xlink" x="0px" y="0px"
	 viewBox="0 0 258 258" style="enable-background:new 0 0 258 258;" xml:space="preserve">
<style type="text/css">
	.st0{fill-rule:evenodd;clip-rule:evenodd;fill:#FFFFFF;}
</style>
<path class="st0" d="M124.7,139.3l21-12.1c9.8-5.7,19.4-2.5,24.6,7c3.9,6.8,4.4,14.6,0.1,20.2c-1.6,2.1-4.5,4.1-7,5.6l-20.1,11.6
	L124.7,139.3L124.7,139.3z M126.3,81.7c5.5-0.1,10.3,3.4,13.4,8.7c4.9,8.4,3.3,17.1-5.1,21.9l-19.1,11L99.2,95.2l16.8-9.7
	C119.7,83.3,123.3,81.9,126.3,81.7z M174.5,174.9l9.4,16.3l-11,6.3l-9.4-16.3l-11.4,6.6l9.4,16.3l-11,6.3l-9.4-16.3l-21.9,12.7
	l-8.6-14.9l6.8-3.9c3.5-2,4.5-6.3,2.6-9.6l-38.1-66c-2-3.5-6.3-4.5-9.6-2.6c-4.5,2.6-6.8,3.9-6.8,3.9s-2.9-5-8.6-14.9l21.9-12.7
	l-9.4-16.3l11-6.3l9.4,16.3l11.4-6.6l-9.4-16.3l11-6.3l9.6,16.6c5.7-3,10.6-4.9,16.1-5.6c12-1.9,24,3.3,31,15.4
	c5.9,10.3,6.1,21.4,0,30.8c14.4-3,25.9,4.4,32.5,15.8c8.3,14.8,4.7,31.2-4.9,41.7C183.1,169.3,179.2,172.2,174.5,174.9L174.5,174.9z
	 M18.1,193c35.3,61.1,113.7,82.2,174.9,46.9c61.1-35.3,82.2-113.7,46.9-174.9C204.6,3.9,126.1-17.2,65,18.1
	C3.9,53.4-17.2,131.9,18.1,193L18.1,193z"/>
</svg>
