<?xml version="1.0" encoding="utf-8"?>
<!-- Generator: Adobe Illustrator 23.0.2, SVG Export Plug-In . SVG Version: 6.00 Build 0)  -->
<svg version="1.1" id="Слой_1" xmlns="http://www.w3.org/2000/svg" xmlns:xlink="http://www.w3.org/1999/xlink" x="0px" y="0px"
	 viewBox="0 0 258 258" style="enable-background:new 0 0 258 258;" xml:space="preserve">
<style type="text/css">
	.st0{fill-rule:evenodd;clip-rule:evenodd;fill:#FFFFFF;}
</style>
<path class="st0" d="M118.7,133.2l23.4,6.3c10.9,2.9,15.5,12,12.4,22.3c-2,7.5-7.2,13.4-14.2,14.3c-2.6,0.4-6.1-0.2-8.9-1l-22.4-6
	L118.7,133.2L118.7,133.2z M160.5,93.6c4,3.9,4.9,9.7,3.3,15.7c-2.5,9.4-9.7,14.4-19.1,11.9l-21.3-5.7l8.4-31.5l18.7,5
	C154.8,90.1,158.3,91.6,160.5,93.6z M128.7,193.6l-4.9,18.2l-12.2-3.3l4.9-18.2l-12.8-3.4l-4.9,18.2l-12.2-3.3l4.9-18.2L67,177.1
	l4.5-16.7l7.5,2c3.9,1,7.6-1.3,8.6-5l19.7-73.7c1-3.9-1.3-7.6-5-8.6c-5-1.3-7.6-2-7.6-2s1.5-5.6,4.5-16.7l24.5,6.6l4.9-18.2
	l12.2,3.3L136,66.4l12.8,3.4l4.9-18.2l12.2,3.3l-5,18.5c6.2,1.9,10.9,4,15.3,7.4c9.8,7.1,14.6,19.3,11,32.8
	c-3.1,11.5-10.8,19.4-21.7,21.8c12.3,8.1,15.2,21.4,11.8,34.1c-4.7,16.3-18.8,25.4-32.9,26.1C138.7,195.8,133.9,195,128.7,193.6
	L128.7,193.6z M5.4,95.9c-18.3,68.2,22.3,138.5,90.5,156.8c68.2,18.3,138.5-22.3,156.8-90.5c18.3-68.2-22.3-138.5-90.5-156.8
	C93.9-12.9,23.6,27.7,5.4,95.9L5.4,95.9z"/>
</svg>
