<?xml version="1.0" encoding="utf-8"?>
<!-- Generator: Adobe Illustrator 23.0.2, SVG Export Plug-In . SVG Version: 6.00 Build 0)  -->
<svg version="1.1" id="Слой_1" xmlns="http://www.w3.org/2000/svg" xmlns:xlink="http://www.w3.org/1999/xlink" x="0px" y="0px"
	 viewBox="0 0 256 256" style="enable-background:new 0 0 256 256;" xml:space="preserve">
<style type="text/css">
	.st0{fill-rule:evenodd;clip-rule:evenodd;fill:#FFFFFF;}
</style>
<path class="st0" d="M128,256c70.7,0,128-57.3,128-128S198.7,0,128,0S0,57.3,0,128S57.3,256,128,256z M71.5,103.3
	c0.1-0.4,0.2-0.9,0.4-1.3c2.5-7.4,4.9-14.8,7.4-22.2c0.4-1.3,0.4-1.3,1.8-1.3l73.2,0c13.4,0,26.7,0,40.1,0c3.8,0,7.3,1,10.6,2.8
	c1.8,1,3.2,2.4,4.3,4.1c1.8,2.9,2.6,6.1,3,9.4c0.4,3.4-0.2,6.6-1.4,9.8c-1.5,4.4-2.9,8.8-4.3,13.2c-3.6,11.3-7.2,22.6-10.8,33.9
	c-0.8,2.4-2,4.5-3.2,6.7c-2.4,4.4-5.9,7.8-9.6,11c-2.7,2.3-5.9,4.1-9,5.9c-2.8,1.7-5.9,2.3-9.1,2.7c-1.6,0.2-3.2,0.2-4.7,0.2
	c-37.2,0-74.4,0-111.6,0c-0.5,0-1.1,0-1.8-0.1c0.1-0.5,0.1-0.8,0.2-1.2c2.5-7.6,5.1-15.1,7.6-22.7c0.3-1,0.4-1,1.6-1
	c15,0,30,0,44.9,0h56.5c1.1,0,1.1,0,1.5-1.1c2.6-8,5.2-15.9,7.8-23.9c2.5-7.8,5.1-15.5,7.6-23.3c0.1-0.4,0.2-0.8,0.4-1.4
	c-0.5,0-1-0.1-1.4-0.1c-7.1,0-14.1,0-21.2,0c-26.4,0-52.8,0-79.1,0C72.8,103.6,72.2,103.7,71.5,103.3 M43.2,139.6
	c0.2-0.5,0.2-1,0.4-1.4c2.3-6.4,4.6-12.8,6.9-19.2c0.2-0.6,0.4-1.2,0.6-1.7c0.1-0.4,0.4-0.6,0.9-0.6c0.3,0,0.5,0,0.8,0
	c19.4,0,38.8,0,58.2,0c0.5,0,0.9,0,1.6,0.1c-0.1,0.5-0.2,0.9-0.3,1.3c-2.3,6.8-4.5,13.6-6.8,20.4c-0.4,1.3-0.4,1.3-1.8,1.3H47.5
	c-1,0-2.1,0-3.1,0C44,139.7,43.7,139.6,43.2,139.6"/>
</svg>
