<?xml version="1.0" encoding="utf-8"?>
<!-- Generator: Adobe Illustrator 23.0.2, SVG Export Plug-In . SVG Version: 6.00 Build 0)  -->
<svg version="1.1" id="Слой_1" xmlns="http://www.w3.org/2000/svg" xmlns:xlink="http://www.w3.org/1999/xlink" x="0px" y="0px"
	 viewBox="0 0 46 46" style="enable-background:new 0 0 46 46;" xml:space="preserve">
<style type="text/css">
	.st0{fill:#FFFFFF;}
</style>
<g>
	<path class="st0" d="M24.6,15.9h-4v6.7h3.9c1.1,0,2.1-0.3,2.7-0.9c0.6-0.6,1-1.3,1-2.4s-0.3-1.9-1-2.6C26.5,16.3,25.6,16,24.6,15.9
		z"/>
	<path class="st0" d="M23,0C10.3,0,0,10.3,0,23s10.3,23,23,23s23-10.3,23-23S35.7,0,23,0z M30.8,24.5c-1.5,1.3-3.7,1.9-6.3,1.9h-4.1
		v8.1h-4.7V11.7h8.9c1.7,0,3.3,0.3,4.5,0.9c1.3,0.6,2.4,1.5,3,2.7c0.7,1.1,1,2.5,1,4C33.1,21.5,32.3,23.2,30.8,24.5L30.8,24.5z"/>
</g>
</svg>
