<?xml version="1.0" encoding="utf-8"?>
<!-- Generator: Adobe Illustrator 23.0.2, SVG Export Plug-In . SVG Version: 6.00 Build 0)  -->
<svg version="1.1" id="Слой_1" xmlns="http://www.w3.org/2000/svg" xmlns:xlink="http://www.w3.org/1999/xlink" x="0px" y="0px"
	 viewBox="0 0 46 46" style="enable-background:new 0 0 46 46;" xml:space="preserve">
<style type="text/css">
	.st0{fill:#FFFFFF;}
</style>
<path class="st0" d="M23,0C10.3,0,0,10.3,0,23s10.3,23,23,23s23-10.3,23-23S35.7,0,23,0z M14.2,30.9H9.1c-0.3,0-0.4-0.1-0.4-0.4
	c0-0.3,0-0.5,0.4-0.5c1.3,0,1.4-0.2,1.4-1.5v-3.3c0-0.3,0.1-0.4,0.4-0.3h1.3c0.3,0,0.4,0.1,0.4,0.4v3.7c0,0.9,0.2,1,1,1.1h0.4
	c0.4,0,0.5,0.1,0.5,0.5C14.6,30.8,14.6,30.9,14.2,30.9z M14.9,24c-2.5,0.2-4.9,0.2-7.4-0.4c-0.1,0-0.3-0.1-0.4-0.1
	c-0.2-0.1-0.3-0.1-0.5-0.2c0.4,0.1,0.5,0.1,1,0.1c0.9,0.1,1.8,0.2,2.9,0.2c1.4,0.1,2.9,0,4.2-0.3c2.1-0.5,3.3-2.3,3-4.4
	c0-0.1,0-0.2-0.1-0.4V18c0-0.1,0-0.1-0.1-0.2v-0.1l-0.3-0.6c-1-1.5-2.7-1.6-4.3-1.5c-0.3,0-0.3,0.2-0.3,0.4v6.3
	c0,0.4-0.1,0.5-0.5,0.5h-1.2c-0.2,0-0.3-0.1-0.3-0.3v-6.2c0-0.4-0.2-0.6-0.6-0.6H9.1c-0.3,0-0.4,0-0.4-0.4c0-0.3,0.2-0.3,0.4-0.3
	h6.5c1.4,0,2.7,0.6,3.6,1.8c0,0,0.1,0.2,0.2,0.3c0,0.1,0.1,0.1,0.1,0.2c0,0.1,0.1,0.1,0.1,0.2l0.3,0.9c0,0.1,0.1,0.6,0.1,0.7v0.5
	c0,0.1,0,0.5-0.1,0.6c-0.3,1.6-1.3,2.7-2.9,3.3C16.4,23.9,15.6,24,14.9,24z M38.5,30.9h-5.4c-0.3,0-0.3-0.2-0.3-0.4
	c0-0.2-0.1-0.5,0.3-0.5h0.8c0.6,0,0.8-0.2,0.8-0.9c0.1-1.9,0.1-3.9,0.1-5.8v-4.5h-0.1c-0.4,0.7-0.7,1.4-1.1,2.1c0,0,0,0.1-0.1,0.1
	c0,0,0,0.1-0.1,0.1c-0.1,0.1-0.1,0.3-0.2,0.4c0,0,0,0.1-0.1,0.1c0,0.1,0,0.1-0.1,0.2c0,0,0,0.1-0.1,0.1c-0.6,1.5-1.4,3-2.1,4.4
	c-0.7,1.3-1.3,2.8-2,4.1c-0.1,0.1-0.1,0.4-0.3,0.4c-0.2,0-0.2-0.2-0.3-0.4c-1.9-3.7-3.8-7.4-5.6-11c0-0.1-0.1-0.2-0.1-0.3
	c-0.1-0.2-0.3-0.5-0.4-0.8c-0.1,0.2-0.1,0.4-0.1,0.5v10.1c0.2,0.8,0.3,0.9,1.1,0.9h0.6c0.4-0.1,0.6,0.1,0.5,0.5
	c0,0.3-0.1,0.4-0.4,0.4h-5.2c-0.4,0-0.3-0.3-0.4-0.5c0-0.3,0.1-0.4,0.4-0.4h0.8c0.8,0,1.1-0.3,1.2-1.1c0.1-0.7,0.1-1.4,0.2-2.1
	c0.1-1,0.1-2.1,0.1-3.2v-7c0-0.5-0.2-0.6-0.6-0.7h-0.4c-0.4,0-0.6-0.2-0.4-0.6c0-0.1,0.1-0.1,0.2-0.1h3c0.1,0,0.2,0.1,0.3,0.2
	c0.5,1.2,1.2,2.4,1.6,3.6c1.5,2.9,2.8,5.8,4.3,8.8c1.1-2.2,2.1-4.5,3.3-6.6c0-0.1,0.1-0.1,0.1-0.2c0,0,0-0.1,0.1-0.1
	c0.8-1.7,1.6-3.5,2.5-5.3c0.1-0.1,0.2-0.2,0.3-0.2h3.3c0.3,0,0.3,0.2,0.3,0.4c0,0.2,0,0.4-0.3,0.4h-0.4c-0.8,0-0.9,0.2-0.9,0.9
	c0,2.6,0,5-0.1,7.6v0.9c0,0.9,0.1,1.9,0,2.9c0,0.4,0,0.8,0.1,1.2c0,0.2,0.3,0.5,0.6,0.5h0.9c0.3,0,0.3,0.2,0.3,0.4
	C38.8,30.6,38.9,30.9,38.5,30.9L38.5,30.9z"/>
</svg>
