<?xml version="1.0" encoding="utf-8"?>
<!-- Generator: Adobe Illustrator 23.0.2, SVG Export Plug-In . SVG Version: 6.00 Build 0)  -->
<svg version="1.1" id="Capa_1" xmlns="http://www.w3.org/2000/svg" xmlns:xlink="http://www.w3.org/1999/xlink" x="0px" y="0px"
	 viewBox="0 0 512 512" style="enable-background:new 0 0 512 512;" xml:space="preserve">
<style type="text/css">
	.st0{fill:#FFFFFF;}
</style>
<path class="st0" d="M512,256c0,125.4-90.1,229.7-209.1,251.7c-15.2,2.8-30.9,4.3-46.9,4.3c-17.6,0-34.8-1.8-51.4-5.2
	C87.8,483,0,379.8,0,256c0-68.2,26.7-130.3,70.2-176.1c2.5-2.7,5.1-5.3,7.7-7.8C124.1,27.4,186.8,0,256,0s132,27.4,178,72
	c1.1,1,2.2,2.1,3.2,3.2C483.4,121.5,512,185.4,512,256z M302.4,214.9v-51.6h121.5V83H92v80.3h121.5v51.8
	c-98.1,5-171.7,25.6-171.7,50.2c0,24.6,73.5,45.2,171.7,50.2v160.8c15,3.1,30.6,4.7,46.5,4.7c14.5,0,28.7-1.3,42.4-3.9V315.7
	c100.2-4.7,175.8-25.4,175.8-50.4S402.6,219.6,302.4,214.9z M260,297c-109.5,0-198.2-16.5-198.2-36.8c0-17.4,64.7-31.9,151.7-35.8
	v59c14.8,2.1,29.6,3.2,44.5,3.2c14.9,0,29.7-1.1,44.5-3.2v-59.2c89.1,3.6,155.8,18.4,155.8,36C458.2,280.5,369.4,297,260,297z"/>
</svg>
