<?xml version="1.0" encoding="utf-8"?>
<!-- Generator: Adobe Illustrator 23.0.1, SVG Export Plug-In . SVG Version: 6.00 Build 0)  -->
<svg version="1.1" id="_x31_" xmlns="http://www.w3.org/2000/svg" xmlns:xlink="http://www.w3.org/1999/xlink" x="0px" y="0px"
	 viewBox="0 0 1021.51 841.89" style="enable-background:new 0 0 1021.51 841.89;" xml:space="preserve">
<style type="text/css">
	.st0{fill-rule:evenodd;clip-rule:evenodd;fill:#F01010;}
	.st1{fill-rule:evenodd;clip-rule:evenodd;}
	.st2{fill-rule:evenodd;clip-rule:evenodd;fill:#FEFEFE;}
</style>
<g>
	
		<ellipse transform="matrix(0.9869 -0.1613 0.1613 0.9869 -49.7615 137.5862)" class="st0" cx="822.4" cy="375.23" rx="22.71" ry="22.71"/>
	<path class="st0" d="M771.03,394.02c-0.45,0.15-0.61,0.6-0.76,1.21c0,0.76,0.15,1.21,0.45,1.5l3.47,0.61
		c1.06,0.14,1.66,0.45,2.12,0.75c0.45,0.31,0.6,0.61,0.6,1.06c0,0.75-0.3,1.96-1.06,3.92c-0.75,1.97-1.66,4.37-2.87,7.25l-3.77,8.9
		c-1.06,2.26-1.97,4.23-2.72,5.73c-0.75,1.67-1.21,2.42-1.36,2.42c-0.15,0-0.45-0.61-0.91-1.66c-0.45-1.05-0.9-2.11-1.35-3.32
		c-0.46-1.21-0.76-2.12-1.06-2.87l-3.47-10.26c-0.3-0.76-0.75-1.82-1.21-3.33c-0.45-1.35-0.91-2.87-1.36-4.22
		c-0.45-1.36-0.6-2.41-0.6-3.02c0-0.3,0.15-0.61,0.45-0.76c0.45-0.15,1.06-0.46,1.96-0.6l2.72-0.61c0.45-0.3,0.6-0.75,0.45-1.5
		c0-0.61-0.3-1.06-0.76-1.21c-1.66,0.15-3.32,0.15-4.97,0.3h-4.69h-5.28c-1.66-0.15-3.47-0.15-5.28-0.3
		c-0.46,0.15-0.76,0.6-0.76,1.21c-0.15,0.75,0,1.21,0.3,1.5l2.87,0.61c1.96,0.45,3.32,1.36,4.07,2.71c0.76,1.36,1.66,3.32,2.41,5.88
		l8.91,24c0.75,1.96,1.21,3.46,1.51,4.53c0.15,1.05,0.3,2.11,0.3,3.16c0,0.75-0.15,1.66-0.45,2.57c-0.15,1.05-0.46,1.81-0.61,2.26
		c-0.45,1.35-1.35,3.17-2.41,5.13c-1.06,2.26-2.41,4.68-4.08,7.25c-0.45,0.6-0.9,1.05-1.51,1.51c-0.6,0.3-1.35,0.45-2.26,0.45h-2.11
		c-1.21,0-2.27,0.46-3.17,1.21c-0.75,0.76-1.2,1.96-1.36,3.32c0,1.36,0.46,2.57,1.36,3.46c0.91,0.76,2.12,1.21,3.63,1.21
		c1.35,0.14,2.56-0.16,3.77-0.91c1.35-0.76,2.41-2.26,3.47-4.38c1.36-3.02,3.02-6.34,4.68-10.11c1.66-3.62,3.47-7.24,5.14-11.01
		c1.66-3.78,3.32-7.25,4.82-10.42c1.51-3.02,2.72-5.58,3.62-7.54l6.19-12.67c1.96-3.92,3.47-6.79,4.83-8.6
		c1.36-1.81,3.01-2.87,4.68-3.32l1.96-0.31c0.46-0.45,0.61-0.89,0.61-1.5c-0.15-0.61-0.46-1.06-0.91-1.21
		c-1.5,0.15-2.87,0.15-4.23,0.3h-4.07h-4.82C774.49,394.17,772.83,394.17,771.03,394.02z"/>
	<path class="st0" d="M421.59,393.11c-1.96-0.3-3.47-0.45-4.83-0.45c-6.19,0.15-11.32,1.36-15.24,3.77
		c-3.92,2.56-6.94,5.58-8.9,9.36c-1.81,3.77-2.71,7.7-2.71,11.77c0,3.62,0.6,6.79,1.66,9.51c1.21,2.87,2.72,5.27,4.67,7.08
		c1.96,1.96,4.38,3.32,6.94,4.23c2.57,1.06,5.44,1.51,8.45,1.51c2.11,0,4.38-0.3,6.79-1.05c2.26-0.76,4.52-2.12,6.79-3.78
		c2.11-1.66,3.77-3.92,4.98-6.64c-0.15-0.45-0.3-0.91-0.75-1.05c-0.3-0.46-0.75-0.61-1.36-0.46c-1.21,1.96-2.71,3.47-4.68,4.82
		c-1.96,1.22-4.38,1.82-7.54,1.82c-4.07,0-7.39-1.06-10.11-3.02c-2.57-1.95-4.53-4.37-5.89-7.24c-1.36-2.87-2.12-5.89-2.12-8.75
		c0.16-4.07,0.91-7.39,2.27-10.11c1.51-2.56,3.47-4.53,5.74-5.89c2.26-1.36,4.82-1.96,7.39-1.96c2.26,0,4.52,0.6,6.49,1.81
		c1.96,1.05,3.47,2.41,4.68,3.92c0.3,0.3,0.6,0.6,0.91,0.75h0.75c0.76,0,1.21-0.45,1.66-1.2c0.46-0.76,0.76-1.81,0.76-2.87
		c0-0.9-0.15-1.81-0.45-2.56c-0.31-0.75-0.76-1.36-1.36-1.81C425.05,394.02,423.39,393.57,421.59,393.11z"/>
	<path class="st0" d="M377.22,399.91c0.46,1.05,0.75,2.11,0.75,3.16c0,0.76-0.15,1.21-0.3,1.51c-0.15,0.46-0.3,0.6-0.46,0.75
		c-0.29,0.3-1.2,0.45-2.86,0.6c-1.81,0.15-4.68,0.31-8.75,0.31h-7.84c-0.45,0-0.6,0-0.76-0.15c-0.15-0.15-0.15-0.15-0.15-0.3
		c0.15-1.36,0.76-2.72,1.81-4.07c1.21-1.51,2.72-2.87,4.68-3.93c1.66-1.06,3.77-1.66,6.04-1.66c2.27,0,3.92,0.46,5.13,1.21
		C375.87,397.94,376.77,398.85,377.22,399.91L377.22,399.91z M386.28,407.9c0.15-0.46,0.15-1.21,0.15-1.97
		c0-2.26-0.6-4.37-1.96-6.33c-1.36-1.96-3.17-3.62-5.43-4.98c-2.41-1.21-5.28-1.81-8.6-1.96c-4.37,0.15-8.14,1.36-11.62,3.62
		c-3.47,2.27-6.04,5.28-7.85,9.05c-1.81,3.78-2.71,7.99-2.71,12.68c0,2.41,0.3,4.98,1.05,7.54c0.75,2.42,1.81,4.67,3.47,6.94
		c1.66,2.11,3.77,3.93,6.64,5.28c2.87,1.36,6.04,1.96,9.66,2.11c1.96,0,3.93-0.3,6.18-1.05c2.27-0.76,4.53-1.81,6.49-3.32
		c1.96-1.66,3.47-3.62,4.83-6.03c-0.15-0.46-0.3-0.9-0.6-1.21c-0.3-0.15-0.76-0.29-1.51-0.15c-1.66,2.27-3.32,3.62-5.13,4.38
		c-1.51,0.75-3.17,1.21-4.98,1.06c-4.07,0-7.54-0.9-10.26-2.87c-2.71-1.82-4.83-4.38-6.19-7.54c-1.36-3.17-2.11-6.64-2.11-10.41
		c-0.15-1.36,0-2.26,0.46-2.72c0.3-0.3,1.05-0.45,2.41-0.3h20.67c2.27,0,3.92,0,4.98-0.15c1.05-0.15,1.51-0.3,1.66-0.6
		C386.13,408.66,386.13,408.36,386.28,407.9z"/>
	<path class="st0" d="M433.35,397.94c0.15,0.46,0.3,0.76,0.6,1.05h3.02c1.06-0.15,1.81,0.15,2.11,0.61c0.15,0.3,0.3,1.21,0.3,2.56
		v25.65c-0.15,2.27,0.16,4.38,0.75,6.03c0.76,1.81,1.82,3.32,3.47,4.37c1.81,1.06,4.23,1.51,7.24,1.66
		c3.02-0.15,5.43-0.76,7.39-1.81c1.96-1.05,3.47-2.11,4.38-3.48c0.15-0.3,0.15-0.6-0.15-1.05c-0.15-0.46-0.46-0.75-0.91-0.75
		c-0.15,0-0.61,0.29-1.21,0.75c-0.45,0.3-1.06,0.6-1.66,0.75c-0.45,0.15-0.76,0.45-1.21,0.6c-0.6,0.15-1.21,0.15-1.66,0.15
		c-2.42-0.15-4.23-0.75-5.43-1.97c-1.2-1.05-1.96-2.56-2.26-4.52c-0.45-1.81-0.6-3.78-0.6-6.04v-20.82c0-1.05,0.15-1.81,0.45-2.26
		c0.15-0.46,0.75-0.6,1.81-0.46h12.37c0.6-0.45,0.91-1.21,0.91-2.27c0.15-1.05-0.15-1.96-0.91-2.41H449.8
		c-0.91,0-1.51-0.15-1.66-0.3c-0.15-0.15-0.3-0.75-0.3-1.81v-4.98c-0.3-0.45-0.75-0.61-1.2-0.61c-0.6-0.15-1.06-0.15-1.21,0
		c-0.6,1.21-1.36,2.42-2.26,3.62c-0.91,1.36-1.66,2.26-2.42,2.87c-0.61,0.61-1.51,1.21-2.86,1.82c-1.21,0.75-2.57,1.21-4.23,1.66
		C433.5,397.04,433.35,397.49,433.35,397.94z"/>
	<path class="st0" d="M296.66,392.06c0-0.3-0.15-0.6-0.31-0.76c-0.15-0.15-0.3-0.15-0.6-0.15c-0.91,0.6-2.12,1.2-3.62,1.96
		c-1.36,0.75-2.87,1.36-4.23,1.97c-1.36,0.76-2.56,1.2-3.32,1.51c-0.45,0.14-0.6,0.6-0.6,1.05c0,0.45,0.15,0.76,0.3,0.91l1.06,0.91
		c1.05,0.45,1.66,1.06,2.11,1.51c0.46,0.61,0.76,1.36,0.76,2.11c0.15,0.76,0.15,1.81,0,3.17v19.62c0.15,2.56,0.15,4.52,0,5.87
		c-0.15,1.36-0.6,2.27-1.21,2.72c-0.6,0.44-1.51,0.9-2.72,1.05l-2.26,0.3c-0.45,0.3-0.61,0.76-0.45,1.51c0.15,0.6,0.3,1.05,0.6,1.36
		c1.36-0.15,3.02-0.3,4.83-0.46h5.58h5.73c1.81,0.15,4.07,0.31,6.64,0.46c0.45-0.3,0.6-0.75,0.6-1.36c0.15-0.75,0-1.21-0.45-1.51
		l-4.07-0.3c-1.36-0.15-2.41-0.45-2.87-0.91c-0.75-0.45-1.21-1.51-1.35-2.87c-0.15-1.35-0.15-3.31-0.15-5.87v-15.25
		c0-1.96,0.15-3.62,0.3-5.13c0.3-1.66,0.75-2.72,1.21-3.47c0.46-0.76,0.91-1.21,1.66-1.66c0.6-0.45,1.36-0.6,2.26-0.6
		c0.75,0,1.66,0.15,2.42,0.45c0.75,0.31,1.66,0.76,2.56,1.36c0.46,0.15,0.76,0.45,1.06,0.6c0.3,0.15,0.76,0.15,1.36,0.15
		c1.05,0,2.11-0.3,3.17-1.06c0.9-0.9,1.5-2.26,1.66-3.92c0-1.51-0.45-2.57-1.51-3.32c-0.9-0.75-2.11-1.21-3.47-1.36
		c-2.12,0.15-4.22,0.75-6.19,2.11c-2.11,1.36-4.22,3.02-6.18,4.68c-0.15-0.15-0.3-0.6-0.3-1.05V392.06z"/>
	<path class="st0" d="M269.8,399.91c0.6,1.05,0.76,2.11,0.6,3.16c0,0.76,0,1.21-0.15,1.51c-0.14,0.46-0.3,0.6-0.45,0.75
		c-0.3,0.3-1.36,0.45-3.02,0.6c-1.66,0.15-4.53,0.31-8.6,0.31h-7.85c-0.46,0-0.6,0-0.75-0.15c-0.15-0.15-0.15-0.15-0.15-0.3
		c0.15-1.36,0.75-2.72,1.82-4.07c1.2-1.51,2.71-2.87,4.68-3.93c1.66-1.06,3.77-1.66,6.03-1.66c2.26,0,3.92,0.46,5.13,1.21
		C268.44,397.94,269.35,398.85,269.8,399.91L269.8,399.91z M278.85,407.9c0.15-0.46,0.15-1.21,0.15-1.97c0-2.26-0.6-4.37-1.96-6.33
		c-1.36-1.96-3.17-3.62-5.44-4.98c-2.41-1.21-5.28-1.81-8.45-1.96c-4.37,0.15-8.3,1.36-11.77,3.62c-3.32,2.27-5.88,5.28-7.85,9.05
		c-1.81,3.78-2.71,7.99-2.71,12.68c0,2.41,0.3,4.98,1.05,7.54c0.76,2.42,1.81,4.67,3.47,6.94c1.66,2.11,3.78,3.93,6.49,5.28
		c2.87,1.36,6.19,1.96,9.81,2.11c1.96,0,3.92-0.3,6.18-1.05c2.27-0.76,4.53-1.81,6.49-3.32c1.96-1.66,3.47-3.62,4.83-6.03
		c-0.15-0.46-0.3-0.9-0.6-1.21c-0.45-0.15-0.91-0.29-1.51-0.15c-1.66,2.27-3.32,3.62-5.13,4.38c-1.51,0.75-3.17,1.21-5.13,1.06
		c-4.07,0-7.4-0.9-10.11-2.87c-2.72-1.82-4.83-4.38-6.19-7.54c-1.35-3.17-2.11-6.64-2.11-10.41c-0.15-1.36,0-2.26,0.45-2.72
		c0.31-0.3,1.05-0.45,2.42-0.3h20.66c2.26,0,3.93,0,4.98-0.15c1.06-0.15,1.51-0.3,1.66-0.6C278.7,408.66,278.7,408.36,278.85,407.9z
		"/>
	<path class="st0" d="M356.4,360.37c-2.11-1.21-4.68-1.81-7.69-1.81c-3.77,0.15-6.94,0.9-9.51,2.26c-2.56,1.36-4.82,3.17-6.63,5.43
		c-1.66,2.11-3.01,4.22-3.92,6.34c-1.36,3.17-2.26,6.49-2.72,9.81c-0.6,3.32-0.9,6.64-0.9,9.96c0,0.46-0.15,0.91-0.45,1.36
		c-0.3,0.3-0.61,0.6-1.06,0.75l-4.82,2.42c-0.15,0.3-0.3,0.75-0.15,1.21c0,0.31,0.15,0.61,0.45,0.9h3.92
		c1.05-0.15,1.81,0.15,1.96,0.61c0.3,0.3,0.3,1.21,0.15,2.56v23.7c0.15,2.56,0.15,4.52-0.15,5.87c-0.15,1.36-0.45,2.27-1.05,2.72
		c-0.6,0.6-1.51,0.9-2.87,1.05l-2.57,0.3c-0.45,0.3-0.6,0.76-0.6,1.51c0.15,0.6,0.3,1.05,0.76,1.36c1.66-0.15,3.32-0.3,4.98-0.46
		h5.89h5.58c1.81,0.15,3.92,0.31,6.49,0.46c0.3-0.3,0.45-0.75,0.6-1.36c0.15-0.75,0-1.21-0.46-1.51l-3.92-0.3
		c-1.36-0.15-2.41-0.45-3.02-0.91c-0.46-0.45-0.9-1.51-1.05-2.87c-0.16-1.35-0.16-3.31-0.16-5.87v-23.7c0-1.36,0-2.26,0.16-2.56
		c0.15-0.45,0.75-0.76,1.81-0.61h11.77c0.45-0.15,0.91-0.6,1.21-1.05c0.15-0.75,0.3-1.35,0.3-1.96c0-0.76-0.15-1.21-0.6-1.66h-12.68
		c-1.06,0.15-1.66,0-1.81-0.46c-0.16-0.45-0.16-1.36-0.16-2.71v-3.32c0-1.81,0-3.92,0.16-6.19c0.15-2.26,0.3-4.38,0.75-6.49
		c0.45-2.26,0.91-4.22,1.51-6.03c0.76-1.96,1.96-3.47,3.32-4.53c1.37-1.06,2.87-1.66,4.53-1.66c1.96,0,3.62,0.46,5.13,1.51
		c1.51,1.06,2.72,2.12,3.77,3.48c0.46,0.44,0.9,0.76,1.36,0.9c0.3,0.15,0.75,0.3,1.36,0.3c1.21,0,2.27-0.3,3.02-1.06
		c0.75-0.76,1.2-1.81,1.36-2.87C359.57,363.24,358.51,361.58,356.4,360.37z"/>
	<path class="st0" d="M658.62,391.3c-0.3-0.15-0.6-0.15-0.75-0.15c-0.75,0.6-1.81,1.2-3.16,1.96c-2.47,1.12-5.49,2.62-8,3.48
		c-0.3,0.14-0.45,0.6-0.45,1.05c0,0.45,0.15,0.76,0.3,0.91l1.06,0.6c0.91,0.75,1.66,1.36,2.11,1.81c0.45,0.61,0.49,0.85,0.65,1.6
		c0.15,0.76,0.11,2.32,0.11,3.68v19.62c0.15,2.56,0,4.52-0.16,5.87c-0.15,1.36-0.45,2.27-1.05,2.72c-0.61,0.6-1.51,0.9-2.87,1.05
		l-2.42,0.3c-0.3,0.3-0.45,0.76-0.3,1.51c0,0.6,0.15,1.05,0.61,1.36c1.51-0.15,3.17-0.3,4.98-0.46h5.43h5.42
		c1.66,0.15,3.33,0.31,4.68,0.46c0.46-0.3,0.61-0.75,0.76-1.36c0-0.75-0.15-1.21-0.46-1.51l-1.96-0.3
		c-1.36-0.15-2.42-0.61-3.02-1.05c-0.45-0.46-0.9-1.37-1.05-2.72c-0.15-1.35-0.15-3.31-0.15-5.87v-17.05c0-2.57,0.05-4.61,1.51-6.79
		c0.75-1.06,2.11-2.11,3.92-2.87c1.66-0.75,3.47-1.06,5.74-1.06c3.77,0.15,6.34,1.21,7.99,3.17c1.67,1.96,2.42,4.68,2.42,7.85v16.75
		c0,2.56,0,4.52-0.15,5.87c-0.15,1.36-0.6,2.27-1.06,2.72c-0.75,0.44-1.66,0.9-3.01,1.05l-2.12,0.3c-0.3,0.3-0.46,0.76-0.46,1.51
		c0.16,0.6,0.31,1.05,0.76,1.36c1.37-0.15,3.02-0.3,4.83-0.46h5.43h5.43c1.66,0.15,3.47,0.31,5.13,0.46c0.3-0.3,0.61-0.75,0.76-1.36
		c0-0.75-0.15-1.21-0.6-1.51l-2.41-0.3c-1.36-0.15-2.27-0.45-3.02-1.05c-0.45-0.46-0.9-1.37-1.05-2.72
		c-0.15-1.35-0.15-3.31-0.15-5.87v-19.32c0-2.57-0.45-4.83-1.35-6.79c-0.91-2.11-2.26-3.77-4.22-5.13
		c-1.96-1.21-4.38-1.81-7.55-1.96c-2.87,0.15-5.58,0.75-8.15,1.81c-2.57,1.06-5.13,2.42-7.54,3.93c-0.3,0-0.61-0.16-0.76-0.31
		c-0.15-0.15-0.3-0.45-0.3-0.75v-2.27c0-0.75,0-1.81,0.15-3.02C658.92,391.6,658.77,391.46,658.62,391.3z"/>
	<path class="st0" d="M626.48,399.6c2.12,2.11,3.62,4.83,4.68,8.15c1.05,3.32,1.51,6.64,1.36,9.81c0.15,3.02-0.3,5.89-1.2,8.75
		c-0.76,2.87-2.12,5.28-3.93,7.24c-1.96,1.96-4.53,2.87-7.7,2.87c-3.32,0-6.03-1.06-8-3.02c-2.26-2.11-3.77-4.67-4.82-7.84
		c-1.06-3.32-1.66-6.64-1.66-10.11c0.15-6.19,1.35-11.02,3.77-14.19c2.27-3.47,5.44-5.13,9.21-5.13
		C621.65,396.13,624.52,397.34,626.48,399.6L626.48,399.6z M639.16,428.26c1.96-3.62,2.86-7.84,3.02-12.51
		c-0.15-4.53-1.21-8.6-3.17-12.07c-1.96-3.48-4.68-6.19-8.15-8.15c-3.47-1.81-7.24-2.71-11.31-2.86c-4.53,0.15-8.6,1.2-12.07,3.17
		c-3.62,1.95-6.48,4.82-8.6,8.44c-2.11,3.62-3.16,7.84-3.16,12.67c0,4.68,1.06,8.75,3.16,12.22c1.96,3.32,4.53,5.88,8,7.85
		c3.47,1.81,7.39,2.71,11.62,2.86c4.67-0.15,8.9-1.05,12.36-3.02C634.48,434.76,637.2,431.89,639.16,428.26z"/>
	<path class="st0" d="M707.2,406.24c-0.3,0-0.45,0-0.6-0.15c-0.15-0.15-0.15-0.15-0.15-0.3c0.15-1.36,0.76-2.72,1.81-4.07
		c1.21-1.51,2.72-2.87,4.54-3.93c1.81-1.06,3.92-1.66,6.18-1.66c2.11,0,3.77,0.46,4.98,1.21c1.36,0.6,2.26,1.5,2.87,2.56
		c0.46,1.05,0.75,2.11,0.6,3.16c0,0.76,0,1.21-0.15,1.51c-0.15,0.46-0.3,0.6-0.46,0.75c-0.3,0.3-1.36,0.45-3.02,0.6
		c-1.66,0.15-4.67,0.31-8.75,0.31H707.2L707.2,406.24z M705.69,410.01c0.46-0.3,1.21-0.45,2.56-0.3h20.68c2.27,0,3.92,0,4.98-0.15
		c2.03-0.34,2.11-1.67,2.11-3.63c0-2.26-0.76-4.37-2.11-6.33c-1.21-1.96-3.01-3.62-5.28-4.98c-2.42-1.21-5.29-1.81-8.6-1.96
		c-4.37,0.15-8.14,1.36-11.62,3.62c-3.47,2.27-6.04,5.28-7.84,9.05c-1.96,3.78-2.87,7.99-2.87,12.68c0,2.41,0.45,4.98,1.21,7.54
		c0.6,2.42,1.8,4.67,3.46,6.94c1.66,2.11,3.78,3.93,6.49,5.28c2.86,1.36,6.04,1.96,9.66,2.11c1.96,0,4.07-0.3,6.34-1.05
		c2.26-0.76,4.37-1.81,6.34-3.32c1.96-1.66,3.62-3.62,4.98-6.03c-0.15-0.46-0.3-0.9-0.76-1.21c-0.3-0.15-0.75-0.29-1.51-0.15
		c-1.66,2.27-3.32,3.62-4.98,4.38c-1.51,0.75-3.17,1.21-5.13,1.06c-4.07,0-7.39-0.9-10.11-2.87c-2.72-1.82-4.83-4.38-6.33-7.54
		c-0.81-1.89-1.41-3.9-1.76-6.01c-0.27-1.62-0.48-3.95-0.41-5.6C705.22,410.82,705.39,410.32,705.69,410.01z"/>
	<path class="st0" d="M513.47,364.6h-4.07c-1.36-0.16-3.02-0.16-4.68-0.3c-0.45,0.15-0.61,0.61-0.75,1.21c-0.15,0.6,0,1.06,0.3,1.51
		l1.81,0.15c2.26,0.44,3.92,0.9,4.98,1.36c1.06,0.6,1.8,1.66,2.11,3.02c0.3,1.36,0.45,3.16,0.3,5.43c-0.15,3.17-0.3,6.94-0.45,11.31
		c-0.16,4.38-0.46,8.91-0.76,13.58c-0.15,3.62-0.44,6.79-0.61,9.5c-0.15,2.87-0.45,5.44-0.6,7.7c-0.15,2.41-0.45,4.83-0.61,7.24
		c-0.3,2.56-0.6,4.53-1.05,5.73c-0.46,1.21-1.21,1.96-2.11,2.42c-1.06,0.44-2.26,0.9-3.77,1.05l-2.42,0.3
		c-0.45,0.3-0.6,0.76-0.45,1.51c0,0.45,0.15,0.9,0.6,1.36c1.96-0.15,3.78-0.3,5.73-0.46h5.74h6.18c2.26,0.15,4.23,0.31,6.03,0.46
		c0.46-0.3,0.76-0.75,0.76-1.36c0-0.61-0.15-1.06-0.61-1.51l-4.22-0.3c-1.36-0.15-2.42-0.45-3.17-1.05
		c-0.75-0.61-1.21-1.66-1.36-3.02c-0.45-1.5-0.61-3.62-0.45-6.34c0-4.68,0.15-9.35,0.3-14.03c0.15-4.68,0.3-8.75,0.45-12.22
		c0.15-3.17,0.46-6.49,0.6-9.81c0.15-3.32,0.3-6.64,0.46-9.96h0.3c1.21,2.56,2.42,5.13,3.48,7.99c1.21,2.72,2.41,5.43,3.61,8
		l10.11,21.57c0.91,1.82,1.97,4.08,3.17,6.8c1.36,2.86,2.71,5.58,3.92,8.29c1.21,2.72,2.11,5.13,2.72,7.24
		c0.15,0.15,0.3,0.15,0.45,0.31l0.45,0.15c0.31,0,0.61,0,0.76-0.15c0.15-0.16,0.3-0.16,0.46-0.31c0.75-1.81,1.66-4.07,3.02-6.78
		c1.21-2.72,2.56-5.74,4.07-8.9c1.66-3.17,3.32-6.49,5.13-9.81l6.21-12.33c3.4-6.75,6.94-15.89,10.83-21.78h0.15l0.31,46.63
		c0.14,2.41,0,4.22-0.15,5.57c-0.34,3-2.62,3.72-5.28,3.93l-3.32,0.3c-0.3,0.3-0.45,0.76-0.3,1.51c0,0.45,0.15,0.9,0.6,1.36
		c2.26-0.15,4.67-0.3,6.94-0.46h6.64h6.34c2.26,0.15,4.53,0.31,6.79,0.46c0.46-0.3,0.61-0.75,0.61-1.36c0.15-0.61,0-1.06-0.3-1.51
		l-3.62-0.3c-2.54-0.23-4.78-1.48-5.13-4.23c-0.15-1.35-0.31-3.02-0.31-4.83c-0.3-5.43-0.45-11.17-0.6-17.05
		c-0.16-6.04-0.46-11.77-0.61-17.2v-14.34c0-2.56,0.15-4.53,0.45-6.04c0.31-1.36,1.06-2.56,2.11-3.32c1.06-0.6,2.86-1.06,5.28-1.36
		l2.26-0.15c0.31-0.3,0.46-0.75,0.31-1.51c0-0.46-0.15-0.91-0.46-1.21c-1.81,0.15-3.62,0.15-5.28,0.3h-4.68
		c-2.79,0-5.51-0.09-8.3-0.3c-0.15,2.56-1.06,5.43-2.42,8.75c-1.66,3.47-3.62,7.7-6.03,12.67l-10.56,21.27
		c-1.36,2.87-2.72,5.74-4.07,8.6c-1.36,2.87-2.87,5.58-4.53,8.3h-0.3c-1.36-2.57-2.57-4.98-3.77-7.55
		c-1.36-2.71-2.57-5.43-3.77-7.99l-12.82-25.65c-1.66-3.62-3.17-7.09-4.37-10.26c-1.06-3.17-1.51-5.88-1.36-8.15
		C519.7,364.55,516.6,364.6,513.47,364.6z"/>
	<path class="st0" d="M189.83,366.41c-0.15,0.6,0.15,1.05,0.61,1.51l3.92,0.45c1.66,0.16,2.87,0.61,3.62,1.36
		c0.75,0.6,1.21,1.66,1.35,3.32c0.16,1.66,0.3,4.08,0.3,7.24v22.33c3.02,0.16,6.04,0.16,9.06,0v-30.78c-0.15-1.21,0-2.11,0.3-2.87
		c0.15-0.45,0.75-0.91,1.51-1.05c0.9-0.15,2.42-0.15,4.37-0.15c5.73,0.15,10.11,1.66,13.28,4.83c3.02,3.17,4.53,7.55,4.53,12.98
		c0.16,4.83-1.05,8.9-3.62,12.22c-2.26,2.87-5.58,4.98-10.11,6.04c-4.37,1.06-10.56,1.51-18.86,1.36c-7.24-0.14-15.09-0.6-23.69-1.5
		c9.51,1.96,16.6,3.32,21.12,3.77c7.39,0.91,14.63,0.76,21.42-0.3c3.47-0.46,6.64-1.36,9.51-2.42c2.71-1.21,5.43-2.86,8.3-4.83
		c1.66-1.21,3.16-3.17,4.52-5.74c1.06-2.41,1.66-5.28,1.81-8.75c-0.15-3.77-1.05-7.08-2.71-9.96c-1.66-2.87-3.62-5.13-6.19-6.78
		c-2.56-1.51-5.73-2.72-9.36-3.48c-3.47-0.6-7.55-0.91-12.22-0.91c-4.53,0-8.6,0-12.22,0.15c-3.62,0.16-6.94,0.3-9.81,0.6
		C190.13,365.35,189.83,365.8,189.83,366.41z"/>
	<path class="st0" d="M208.69,421.64v-10.57c-3.33,0.15-6.34,0-9.06-0.45v11.02c0,3.76-0.15,6.63-0.45,8.59
		c-0.15,1.97-0.75,3.17-1.82,3.77c-0.75,0.76-2.26,1.36-4.52,1.51l-2.27,0.3c-0.45,0.45-0.6,0.9-0.45,1.51
		c0,0.6,0.15,1.05,0.61,1.36c2.41-0.15,4.67-0.3,6.79-0.46h6.79h6.49c2.26,0.15,4.98,0.31,8.15,0.46c0.3-0.3,0.46-0.75,0.6-1.36
		c0-0.75-0.15-1.21-0.45-1.51l-3.02-0.3c-2.42-0.15-4.07-0.61-4.98-1.36c-1.06-0.75-1.81-1.96-2.12-3.92
		C208.69,428.26,208.54,425.4,208.69,421.64z"/>
	<path class="st1" d="M511,456.64h4.62v16.4c0,6.98-3.38,9.31-8.41,9.31c-1.28,0-2.89-0.23-3.87-0.6l0.56-3.72
		c0.75,0.23,1.76,0.45,2.86,0.45c2.62,0,4.23-1.2,4.23-5.6V456.64z"/>
	<path class="st1" d="M539.87,476.45c0,2.17,0.07,3.98,0.15,5.48h-4.05l-0.22-2.78h-0.08c-0.78,1.32-2.58,3.19-5.85,3.19
		c-3.34,0-6.38-1.99-6.38-7.95v-10.74h4.62v9.94c0,3.04,0.98,4.99,3.41,4.99c1.84,0,3.04-1.31,3.53-2.48
		c0.15-0.41,0.26-0.9,0.26-1.43v-11.03h4.62V476.45z"/>
	<path class="st1" d="M547.64,477.69c1.05,0.64,3.03,1.31,4.69,1.31c2.03,0,2.92-0.82,2.92-2.03c0-1.24-0.75-1.87-3-2.66
		c-3.56-1.24-5.07-3.19-5.03-5.33c0-3.23,2.66-5.74,6.9-5.74c2.03,0,3.79,0.52,4.84,1.08l-0.9,3.26c-0.79-0.45-2.25-1.05-3.87-1.05
		c-1.65,0-2.55,0.79-2.55,1.92c0,1.16,0.86,1.73,3.19,2.55c3.31,1.21,4.84,2.89,4.88,5.6c0,3.3-2.59,5.74-7.43,5.74
		c-2.22,0-4.2-0.56-5.55-1.31L547.64,477.69z"/>
	<path class="st1" d="M571.8,458.97v4.69h4.39v3.45h-4.39v8.07c0,2.21,0.6,3.38,2.37,3.38c0.86,0,1.27-0.08,1.8-0.23l0.08,3.53
		c-0.68,0.26-1.88,0.49-3.34,0.49c-1.7,0-3.12-0.6-3.98-1.54c-0.97-1.05-1.42-2.7-1.42-5.1v-8.59h-2.63v-3.45h2.63v-3.38
		L571.8,458.97z"/>
	<path class="st1" d="M598.07,474.28c0,0.45,0.04,0.86,0.16,1.28c0.45,1.88,2.1,3.23,4.05,3.23c2.93,0,4.66-2.44,4.66-6.04
		c0-3.23-1.58-5.85-4.54-5.85c-1.92,0-3.68,1.39-4.13,3.41c-0.11,0.37-0.19,0.79-0.19,1.16V474.28L598.07,474.28z M593.46,469.73
		c0-2.4-0.08-4.35-0.15-6.08h4.05l0.23,2.82h0.07c1.35-2.07,3.49-3.23,6.27-3.23c4.21,0,7.7,3.6,7.7,9.3c0,6.6-4.16,9.8-8.33,9.8
		c-2.29,0-4.2-0.98-5.14-2.44h-0.08v9.46h-4.61V469.73z"/>
	<path class="st1" d="M629.71,470.86c0.04-1.69-0.71-4.47-3.79-4.47c-2.85,0-4.05,2.59-4.23,4.47H629.71L629.71,470.86z
		 M621.68,474.09c0.1,3.3,2.7,4.73,5.63,4.73c2.14,0,3.68-0.3,5.07-0.83l0.68,3.19c-1.57,0.64-3.75,1.16-6.38,1.16
		c-5.93,0-9.42-3.68-9.42-9.27c0-5.07,3.08-9.83,8.93-9.83c5.97,0,7.88,4.88,7.88,8.89c0,0.86-0.08,1.54-0.15,1.95H621.68z"/>
	<path class="st1" d="M640.78,469.55c0-2.48-0.04-4.24-0.15-5.89h4.01l0.16,3.49h0.15c0.9-2.59,3.04-3.9,4.99-3.9
		c0.45,0,0.71,0.04,1.09,0.11v4.35c-0.38-0.07-0.79-0.15-1.35-0.15c-2.21,0-3.72,1.42-4.13,3.49c-0.08,0.41-0.15,0.9-0.15,1.42v9.46
		h-4.61V469.55z"/>
	<path class="st1" d="M658.72,481.93v-14.82h-2.48v-3.45h2.48v-0.79c0-2.36,0.64-4.73,2.21-6.23c1.35-1.28,3.19-1.77,4.77-1.77
		c1.24,0,2.21,0.19,2.96,0.46l-0.33,3.56c-0.49-0.19-1.13-0.34-1.95-0.34c-2.29,0-3.08,1.92-3.08,4.17v0.94h4.01v3.45h-3.98v14.82
		H658.72z"/>
	<path class="st1" d="M684.05,470.86c0.04-1.69-0.72-4.47-3.79-4.47c-2.85,0-4.05,2.59-4.24,4.47H684.05L684.05,470.86z
		 M676.02,474.09c0.11,3.3,2.7,4.73,5.63,4.73c2.14,0,3.68-0.3,5.06-0.83l0.68,3.19c-1.57,0.64-3.75,1.16-6.38,1.16
		c-5.93,0-9.42-3.68-9.42-9.27c0-5.07,3.08-9.83,8.93-9.83c5.97,0,7.87,4.88,7.87,8.89c0,0.86-0.07,1.54-0.15,1.95H676.02z"/>
	<path class="st1" d="M708.56,481.37c-0.98,0.45-2.89,0.98-5.18,0.98c-5.71,0-9.42-3.68-9.42-9.35c0-5.48,3.75-9.75,10.17-9.75
		c1.69,0,3.41,0.37,4.46,0.86l-0.82,3.46c-0.75-0.34-1.84-0.71-3.49-0.71c-3.53,0-5.63,2.59-5.6,5.93c0,3.75,2.44,5.89,5.6,5.89
		c1.61,0,2.74-0.33,3.64-0.71L708.56,481.37z"/>
	<path class="st1" d="M720.83,458.97v4.69h4.39v3.45h-4.39v8.07c0,2.21,0.6,3.38,2.37,3.38c0.86,0,1.27-0.08,1.8-0.23l0.07,3.53
		c-0.68,0.26-1.88,0.49-3.34,0.49c-1.69,0-3.12-0.6-3.98-1.54c-0.97-1.05-1.43-2.7-1.43-5.1v-8.59h-2.62v-3.45h2.62v-3.38
		L720.83,458.97z"/>
	<path class="st2" d="M821.43,367.87h-0.98h-0.94c-0.32-0.04-0.7-0.04-1.08-0.07c-0.1,0.03-0.14,0.14-0.18,0.28
		c-0.03,0.14,0,0.25,0.07,0.35l0.42,0.04c0.52,0.1,0.91,0.21,1.15,0.31c0.24,0.14,0.42,0.38,0.49,0.7c0.07,0.31,0.1,0.73,0.07,1.26
		c-0.04,0.73-0.07,1.61-0.1,2.62c-0.04,1.02-0.11,2.06-0.18,3.15c-0.07,1.68-0.22,5.76-0.68,6.97c-0.11,0.28-0.28,0.45-0.49,0.56
		c-0.25,0.1-0.53,0.21-0.88,0.24l-0.56,0.07c-0.1,0.07-0.14,0.18-0.1,0.35c0,0.11,0.03,0.21,0.14,0.32
		c0.46-0.03,0.88-0.07,1.33-0.11h1.33h1.44c0.53,0.04,0.98,0.07,1.4,0.11c0.11-0.07,0.18-0.17,0.18-0.32c0-0.14-0.03-0.25-0.14-0.35
		l-0.98-0.07c-0.32-0.04-0.56-0.11-0.74-0.24c-0.09-0.07-0.16-0.17-0.21-0.29c-0.21-0.5-0.21-1.34-0.2-1.86
		c0.02-1.08,0.04-2.17,0.07-3.25c0.04-1.08,0.07-2.03,0.1-2.83c0.03-0.73,0.11-1.5,0.14-2.27c0.04-0.77,0.07-1.54,0.11-2.31h0.07
		c0.28,0.59,0.56,1.19,0.8,1.85c0.28,0.63,0.56,1.26,0.84,1.85l2.34,5c0.21,0.42,0.46,0.95,0.73,1.58c0.32,0.66,0.63,1.29,0.91,1.92
		c0.15,0.33,0.28,0.65,0.38,0.94c0.03,0,0.22,0.64,0.25,0.72c0.13,0.14,0.36,0.13,0.49,0c0.22-0.52,0.44-1.05,0.7-1.55
		c0.66-1.49,1.35-2.91,2.13-4.34l2.27-4.51c0.18-0.39,0.35-0.81,0.59-1.26c0.25-0.49,0.49-0.94,0.7-1.33
		c0.17-0.42,0.31-0.7,0.38-0.8h0.04l0.07,10.81c0.03,0.56,0,0.98-0.04,1.29c-0.03,0.25-0.1,0.49-0.34,0.61
		c-0.14,0.17-0.42,0.24-0.88,0.28l-0.77,0.07c-0.07,0.07-0.1,0.18-0.07,0.35c0,0.11,0.04,0.21,0.14,0.32
		c0.52-0.03,1.08-0.07,1.61-0.11h1.54h1.47c0.52,0.04,1.05,0.07,1.58,0.11c0.11-0.07,0.14-0.17,0.14-0.32
		c0.03-0.14,0-0.25-0.07-0.35l-0.84-0.07c-0.39-0.04-0.67-0.14-0.84-0.32c-0.17-0.17-0.31-0.38-0.35-0.67
		c-0.04-0.31-0.07-0.7-0.07-1.12c-0.07-1.3-0.12-2.62-0.15-3.93c-0.04-1.4-0.11-2.73-0.14-3.99v-3.32c0-0.59,0.03-1.05,0.1-1.4
		c0.07-0.31,0.25-0.59,0.49-0.77c0.25-0.14,0.66-0.25,1.22-0.31l0.52-0.04c0.07-0.07,0.1-0.17,0.07-0.35c0-0.11-0.04-0.21-0.1-0.28
		c-0.42,0.03-0.84,0.03-1.22,0.07h-1.08h-0.8c-0.32-0.04-0.67-0.04-1.12-0.07c-0.04,0.59-0.24,1.26-0.56,2.03
		c-0.38,0.8-0.84,1.78-1.4,2.94l-2.45,4.93c-0.64,1.34-1.21,2.62-1.99,3.89h-0.07c-0.62-1.17-1.19-2.38-1.75-3.58l-2.97-5.95
		c-0.38-0.84-0.73-1.64-1.01-2.38c-0.25-0.73-0.35-1.36-0.31-1.89C822.2,367.84,821.82,367.84,821.43,367.87L821.43,367.87z
		 M807.08,381.17c0,0.89-0.04,1.57-0.11,2.03c-0.07,0.9-0.66,1.19-1.5,1.25l-0.54,0.07c-0.17,0.17-0.16,0.55,0.04,0.68
		c1.11-0.07,2.1-0.11,3.21-0.11c1.18,0,2.28,0.05,3.46,0.11c0.07-0.07,0.11-0.18,0.14-0.32c0-0.18-0.04-0.29-0.11-0.36l-0.71-0.07
		c-0.57-0.04-0.96-0.14-1.18-0.32c-0.01-0.01-0.03-0.02-0.04-0.03c-0.22-0.18-0.37-0.45-0.44-0.88c-0.07-0.46-0.11-1.14-0.07-2.03
		v-2.5c-0.78,0.04-1.5,0-2.14-0.11L807.08,381.17L807.08,381.17z M804.79,368.14c-0.04,0.14,0.04,0.25,0.14,0.36l0.93,0.11
		c0.39,0.04,0.68,0.14,0.86,0.32c0.18,0.14,0.29,0.39,0.32,0.78c0.04,0.39,0.07,0.96,0.07,1.71v5.28c0.71,0.04,1.43,0.04,2.14,0
		v-7.27c-0.04-0.28,0-0.5,0.07-0.68c0.04-0.11,0.18-0.21,0.36-0.25c0.21-0.04,0.57-0.04,1.03-0.04c1.35,0.04,2.39,0.39,3.14,1.14
		c0.71,0.75,1.07,1.78,1.07,3.07c0.04,1.14-0.25,2.1-0.85,2.89c-0.53,0.68-1.32,1.18-2.39,1.43c-1.03,0.25-2.5,0.36-4.46,0.32
		c-1.71-0.03-3.57-0.14-5.6-0.36c2.25,0.46,3.92,0.78,4.99,0.89c1.75,0.22,3.46,0.18,5.06-0.07c0.82-0.11,1.57-0.32,2.25-0.57
		c0.64-0.28,1.28-0.68,1.96-1.14c0.39-0.29,0.75-0.75,1.07-1.36c0.25-0.57,0.39-1.25,0.43-2.07c-0.04-0.89-0.25-1.67-0.64-2.35
		c-0.39-0.68-0.86-1.21-1.46-1.6c-0.61-0.36-1.35-0.64-2.21-0.82c-0.82-0.14-1.78-0.21-2.89-0.21c-1.07,0-2.03,0-2.89,0.04
		c-0.86,0.04-1.64,0.07-2.32,0.14C804.86,367.89,804.79,368,804.79,368.14z"/>
</g>
</svg>
